# xmcd
#
# Track frame offsets:
#	150
#	18777
#	35192
#	53405
#	67602
#	83225
#	101360
#	116787
#	135197
#	153252
#	171865
#	188502
#	205142
#	224032
#
# Disc length: 3201 seconds
#
# Revision: 1
# Processed by: cddbd v1.4PL0 Copyright (c) Steve Scherf et al.
# Submitted via: audiograbber 1.81.00
#
DISCID=af0c7f0e
DTITLE=Charlie Major - Greatest Hits
DYEAR=1999
DGENRE=Country
TTITLE0=I'm Gonna Drive You Out Of My Mind
TTITLE1=I'm Somebody
TTITLE2=I't Can't Happen To Me
TTITLE3=The Other Side
TTITLE4=Nobody Gets Too Much Love
TTITLE5=Waiting On You
TTITLE6=I Do It For The Money
TTITLE7=This Crazy Heart Of Mine
TTITLE8=It's Lonely I Can't Stand
TTITLE9=Tell Me Something I Don't Know
TTITLE10=Someday I'm Gonna Ride In A Cadillac
TTITLE11=I'm Feeling Kind Of Lucky Tonight
TTITLE12=Some Days Are Better
TTITLE13=You Can Trust In My Love
EXTD=
EXTT0=
EXTT1=
EXTT2=
EXTT3=
EXTT4=
EXTT5=
EXTT6=
EXTT7=
EXTT8=
EXTT9=
EXTT10=
EXTT11=
EXTT12=
EXTT13=
PLAYORDER=
